<mxfile host="app.diagrams.net" modified="2024-03-14T02:25:33.599Z" agent="Mozilla/5.0 (Windows NT 10.0; Win64; x64) AppleWebKit/537.36 (KHTML, like Gecko) Chrome/122.0.0.0 Safari/537.36" etag="VReRebsALOf0ewOr5Dhz" version="24.0.6" type="github">
  <diagram name="Page-1" id="c7558073-3199-34d8-9f00-42111426c3f3">
    <mxGraphModel dx="607" dy="323" grid="1" gridSize="10" guides="1" tooltips="1" connect="1" arrows="1" fold="1" page="1" pageScale="1" pageWidth="826" pageHeight="1169" background="none" math="0" shadow="0">
      <root>
        <mxCell id="0" />
        <mxCell id="1" parent="0" />
        <mxCell id="2" value="&lt;p style=&quot;margin: 0px; margin-top: 4px; text-align: center; text-decoration: underline;&quot;&gt;&lt;strong&gt;6 Tablas CSV&lt;/strong&gt;&lt;/p&gt;&lt;hr&gt;&lt;p style=&quot;text-align: left; margin: 0px 0px 0px 8px; font-size: 11px;&quot;&gt;&lt;font style=&quot;font-size: 11px; font-weight: normal;&quot;&gt;RO DROGA&lt;/font&gt;&lt;/p&gt;&lt;p style=&quot;text-align: left; margin: 0px 0px 0px 8px; font-size: 11px;&quot;&gt;&lt;font style=&quot;font-size: 11px; font-weight: normal;&quot;&gt;RO COCAINA&lt;/font&gt;&lt;/p&gt;&lt;p style=&quot;text-align: left; margin: 0px 0px 0px 8px; font-size: 11px;&quot;&gt;&lt;font style=&quot;font-size: 11px; font-weight: normal;&quot;&gt;RO MARIHUANA&lt;/font&gt;&lt;/p&gt;&lt;p style=&quot;text-align: left; margin: 0px 0px 0px 8px; font-size: 11px;&quot;&gt;&lt;font style=&quot;font-size: 11px; font-weight: normal;&quot;&gt;RO INSUMOS&lt;/font&gt;&lt;/p&gt;&lt;p style=&quot;text-align: left; margin: 0px 0px 0px 8px; font-size: 11px;&quot;&gt;&lt;font style=&quot;font-size: 11px; font-weight: normal;&quot;&gt;RO INFRAESTRUCTURA&amp;nbsp;&lt;/font&gt;&lt;/p&gt;&lt;p style=&quot;text-align: left; margin: 0px 0px 0px 8px; font-size: 11px;&quot;&gt;&lt;font style=&quot;font-size: 11px; font-weight: normal;&quot;&gt;ERRADICACIÓN&lt;/font&gt;&lt;/p&gt;" style="verticalAlign=middle;align=center;overflow=fill;fontSize=12;fontFamily=Helvetica;html=1;rounded=1;fontStyle=1;strokeWidth=3;fillColor=#E6FFCC" parent="1" vertex="1">
          <mxGeometry x="44.5" y="186" width="144" height="114" as="geometry" />
        </mxCell>
        <mxCell id="4" value="Ministerio de Defensa" style="whiteSpace=wrap;align=center;verticalAlign=middle;fontStyle=1;strokeWidth=3;fillColor=#FFFFCC" parent="1" vertex="1">
          <mxGeometry x="73.5" y="55" width="90" height="60" as="geometry" />
        </mxCell>
        <mxCell id="5" value="Observatorio de Drogas de Colombia" style="shape=process;whiteSpace=wrap;align=center;verticalAlign=middle;size=0.0475;fontStyle=1;strokeWidth=3;fillColor=#FFCCCC;fontSize=15;" parent="1" vertex="1">
          <mxGeometry x="200.99999999999991" y="391" width="400" height="50" as="geometry" />
        </mxCell>
        <mxCell id="10" value="&lt;p style=&quot;margin: 0px; margin-top: 4px; text-align: center; text-decoration: underline;&quot;&gt;&lt;strong&gt;&lt;strong&gt;Process&lt;/strong&gt; 6&lt;br /&gt;&lt;/strong&gt;&lt;/p&gt;&lt;hr /&gt;&lt;p style=&quot;margin: 0px; margin-left: 8px;&quot;&gt;New&lt;/p&gt;&lt;p style=&quot;margin: 0px; margin-left: 8px;&quot;&gt;System&lt;/p&gt;&lt;p style=&quot;margin: 0px; margin-left: 8px;&quot;&gt;Construction&lt;/p&gt;" style="verticalAlign=middle;align=center;overflow=fill;fontSize=12;fontFamily=Helvetica;html=1;rounded=1;fontStyle=1;strokeWidth=3;fillColor=#E6FFCC" parent="1" vertex="1">
          <mxGeometry x="388.9999999999999" y="950" width="110" height="90" as="geometry" />
        </mxCell>
        <mxCell id="13" value="Management" style="whiteSpace=wrap;align=center;verticalAlign=middle;fontStyle=1;strokeWidth=3;fillColor=#FFFFCC" parent="1" vertex="1">
          <mxGeometry x="554" y="1090" width="90" height="60" as="geometry" />
        </mxCell>
        <mxCell id="14" value="Engineering" style="whiteSpace=wrap;align=center;verticalAlign=middle;fontStyle=1;strokeWidth=3;fillColor=#FFFFCC" parent="1" vertex="1">
          <mxGeometry x="235.49999999999997" y="964.9999999999999" width="90" height="60" as="geometry" />
        </mxCell>
        <mxCell id="37" value="" style="edgeStyle=none;noEdgeStyle=1;strokeColor=#990000;strokeWidth=2" parent="1" source="4" target="2" edge="1">
          <mxGeometry width="100" height="100" relative="1" as="geometry">
            <mxPoint x="114.5" y="180" as="sourcePoint" />
            <mxPoint x="214.5" y="80" as="targetPoint" />
          </mxGeometry>
        </mxCell>
        <mxCell id="52" value="Entrega&#xa;Mensual" style="text;spacingTop=-5;align=center" parent="1" vertex="1">
          <mxGeometry x="52.5" y="125" width="30" height="20" as="geometry" />
        </mxCell>
        <mxCell id="56" value="" style="edgeStyle=elbowEdgeStyle;elbow=horizontal;strokeColor=#990000;strokeWidth=2;exitX=0.5;exitY=1;exitDx=0;exitDy=0;entryX=0;entryY=0.5;entryDx=0;entryDy=0;" parent="1" source="2" edge="1" target="5">
          <mxGeometry width="100" height="100" relative="1" as="geometry">
            <mxPoint x="-18" y="500" as="sourcePoint" />
            <mxPoint x="212" y="391" as="targetPoint" />
            <Array as="points">
              <mxPoint x="117" y="370" />
            </Array>
          </mxGeometry>
        </mxCell>
        <mxCell id="85" value="" style="edgeStyle=elbowEdgeStyle;elbow=horizontal;strokeColor=#990000;strokeWidth=2" parent="1" source="10" target="13" edge="1">
          <mxGeometry width="100" height="100" relative="1" as="geometry">
            <mxPoint x="330.5000000000001" y="1180" as="sourcePoint" />
            <mxPoint x="430.5000000000001" y="1080" as="targetPoint" />
            <Array as="points">
              <mxPoint x="444.5" y="1070" />
            </Array>
          </mxGeometry>
        </mxCell>
        <mxCell id="86" value="Progress&#xa;Reports" style="text;spacingTop=-5;align=center" parent="1" vertex="1">
          <mxGeometry x="456.49999999999994" y="1090" width="30" height="20" as="geometry" />
        </mxCell>
        <mxCell id="87" value="" style="edgeStyle=elbowEdgeStyle;elbow=vertical;strokeColor=#990000;strokeWidth=2" parent="1" source="10" target="14" edge="1">
          <mxGeometry width="100" height="100" relative="1" as="geometry">
            <mxPoint x="270.5" y="1180" as="sourcePoint" />
            <mxPoint x="370.5" y="1080" as="targetPoint" />
          </mxGeometry>
        </mxCell>
        <mxCell id="7qlZIiX-SYgFlXNxfweP-97" value="&lt;p style=&quot;margin: 4px 0px 0px; text-decoration: underline;&quot;&gt;&lt;strong style=&quot;&quot;&gt;&lt;font style=&quot;font-size: 12px;&quot;&gt;8 Tablas CSV&lt;/font&gt;&lt;/strong&gt;&lt;/p&gt;&lt;hr style=&quot;text-align: left;&quot;&gt;&lt;p style=&quot;margin: 0px 0px 0px 8px;&quot;&gt;&lt;/p&gt;&lt;ol style=&quot;&quot;&gt;&lt;li style=&quot;text-align: left;&quot;&gt;&lt;span style=&quot;font-weight: normal;&quot;&gt;&lt;font style=&quot;font-size: 12px;&quot;&gt;TabDensidadesCoca&lt;/font&gt;&lt;/span&gt;&lt;/li&gt;&lt;li style=&quot;text-align: left;&quot;&gt;&lt;font style=&quot;font-size: 12px;&quot;&gt;&lt;span style=&quot;font-weight: 400;&quot;&gt;TabEstadísticasMunici&lt;/span&gt;&lt;span style=&quot;font-weight: 400; background-color: initial;&quot;&gt;pales&lt;/span&gt;&lt;/font&gt;&lt;/li&gt;&lt;li style=&quot;text-align: left;&quot;&gt;&lt;span style=&quot;background-color: initial;&quot;&gt;&lt;span style=&quot;font-weight: 400;&quot;&gt;&lt;font style=&quot;font-size: 12px;&quot;&gt;TabPermanencias&lt;/font&gt;&lt;/span&gt;&lt;/span&gt;&lt;/li&gt;&lt;li style=&quot;text-align: left;&quot;&gt;&lt;span style=&quot;background-color: initial;&quot;&gt;&lt;span style=&quot;font-weight: 400;&quot;&gt;&lt;font style=&quot;font-size: 12px;&quot;&gt;TabPyR&lt;/font&gt;&lt;/span&gt;&lt;/span&gt;&lt;/li&gt;&lt;li style=&quot;text-align: left;&quot;&gt;&lt;font style=&quot;font-size: 12px;&quot;&gt;&lt;span style=&quot;font-weight: 400;&quot;&gt;TabAreasAfectadasCo&lt;/span&gt;&lt;span style=&quot;font-weight: 400; background-color: initial;&quot;&gt;ca&lt;/span&gt;&lt;/font&gt;&lt;/li&gt;&lt;li style=&quot;text-align: left;&quot;&gt;&lt;font style=&quot;font-size: 12px;&quot;&gt;&lt;span style=&quot;font-weight: 400;&quot;&gt;TabCultivosConsejos&lt;/span&gt;&lt;span style=&quot;font-weight: 400; background-color: initial;&quot;&gt;Comunitarios&lt;/span&gt;&lt;/font&gt;&lt;/li&gt;&lt;li style=&quot;text-align: left;&quot;&gt;&lt;font style=&quot;font-size: 12px;&quot;&gt;&lt;span style=&quot;font-weight: 400;&quot;&gt;TabCultivosCocaParq&lt;/span&gt;&lt;span style=&quot;font-weight: 400; background-color: initial;&quot;&gt;ues&lt;/span&gt;&lt;/font&gt;&lt;/li&gt;&lt;li style=&quot;text-align: left;&quot;&gt;&lt;font style=&quot;font-size: 12px;&quot;&gt;&lt;span style=&quot;font-weight: 400;&quot;&gt;TabCultivosCocaResg&lt;/span&gt;&lt;span style=&quot;font-weight: 400; background-color: initial;&quot;&gt;uardoIndigenas&lt;/span&gt;&lt;/font&gt;&lt;/li&gt;&lt;/ol&gt;&lt;p&gt;&lt;/p&gt;" style="verticalAlign=middle;align=center;overflow=fill;fontSize=12;fontFamily=Helvetica;html=1;rounded=1;fontStyle=1;strokeWidth=3;fillColor=#E6FFCC" parent="1" vertex="1">
          <mxGeometry x="220" y="161" width="263.5" height="164" as="geometry" />
        </mxCell>
        <mxCell id="7qlZIiX-SYgFlXNxfweP-98" value="SIMCI" style="whiteSpace=wrap;align=center;verticalAlign=middle;fontStyle=1;strokeWidth=3;fillColor=#FFFFCC" parent="1" vertex="1">
          <mxGeometry x="306.75" y="55" width="90" height="60" as="geometry" />
        </mxCell>
        <mxCell id="7qlZIiX-SYgFlXNxfweP-100" value="" style="edgeStyle=elbowEdgeStyle;elbow=horizontal;strokeColor=#990000;strokeWidth=2;exitX=0.5;exitY=1;exitDx=0;exitDy=0;" parent="1" source="7qlZIiX-SYgFlXNxfweP-98" target="7qlZIiX-SYgFlXNxfweP-97" edge="1">
          <mxGeometry width="100" height="100" relative="1" as="geometry">
            <mxPoint x="516.75" y="75" as="sourcePoint" />
            <mxPoint x="516.75" y="141" as="targetPoint" />
            <Array as="points">
              <mxPoint x="351.75" y="145" />
            </Array>
          </mxGeometry>
        </mxCell>
        <mxCell id="7qlZIiX-SYgFlXNxfweP-101" value="Entrega&#xa;Anual" style="text;spacingTop=-5;align=center" parent="1" vertex="1">
          <mxGeometry x="381" y="125" width="30" height="20" as="geometry" />
        </mxCell>
        <mxCell id="2VJSSDCcaUOSP8XT7AO9-96" value="&lt;p style=&quot;margin: 0px; margin-top: 4px; text-align: center; text-decoration: underline;&quot;&gt;&lt;strong&gt;1 Tablas CSV&lt;/strong&gt;&lt;/p&gt;&lt;hr&gt;&lt;p style=&quot;text-align: left; margin: 0px 0px 0px 8px;&quot;&gt;&lt;span style=&quot;font-size: 11px; font-weight: 400;&quot;&gt;TabEstudiosConsumo&lt;/span&gt;&lt;br&gt;&lt;/p&gt;" style="verticalAlign=middle;align=center;overflow=fill;fontSize=12;fontFamily=Helvetica;html=1;rounded=1;fontStyle=1;strokeWidth=3;fillColor=#E6FFCC" vertex="1" parent="1">
          <mxGeometry x="500" y="186" width="120" height="64" as="geometry" />
        </mxCell>
        <mxCell id="2VJSSDCcaUOSP8XT7AO9-97" value="Ministerio de Justicia y del Derecho" style="whiteSpace=wrap;align=center;verticalAlign=middle;fontStyle=1;strokeWidth=3;fillColor=#FFFFCC" vertex="1" parent="1">
          <mxGeometry x="554" y="55" width="90" height="60" as="geometry" />
        </mxCell>
        <mxCell id="2VJSSDCcaUOSP8XT7AO9-99" value="Entrega&#xa;Quinquenal" style="text;spacingTop=-5;align=center" vertex="1" parent="1">
          <mxGeometry x="500" y="50" width="30" height="20" as="geometry" />
        </mxCell>
        <mxCell id="2VJSSDCcaUOSP8XT7AO9-100" value="&lt;p style=&quot;margin: 0px; margin-top: 4px; text-align: center; text-decoration: underline;&quot;&gt;&lt;strong&gt;1 Tablas CSV&lt;/strong&gt;&lt;/p&gt;&lt;hr&gt;&lt;p style=&quot;text-align: left; margin: 0px 0px 0px 8px;&quot;&gt;&lt;span style=&quot;font-size: 11px; font-weight: 400;&quot;&gt;TabSUICAD&lt;/span&gt;&lt;br&gt;&lt;/p&gt;" style="verticalAlign=middle;align=center;overflow=fill;fontSize=12;fontFamily=Helvetica;html=1;rounded=1;fontStyle=1;strokeWidth=3;fillColor=#E6FFCC" vertex="1" parent="1">
          <mxGeometry x="595" y="290" width="90" height="64" as="geometry" />
        </mxCell>
        <mxCell id="2VJSSDCcaUOSP8XT7AO9-102" value="" style="edgeStyle=none;noEdgeStyle=1;strokeColor=#990000;strokeWidth=2;exitX=0.5;exitY=1;exitDx=0;exitDy=0;entryX=0.5;entryY=0;entryDx=0;entryDy=0;" edge="1" parent="1" source="2VJSSDCcaUOSP8XT7AO9-97" target="2VJSSDCcaUOSP8XT7AO9-100">
          <mxGeometry width="100" height="100" relative="1" as="geometry">
            <mxPoint x="725" y="115" as="sourcePoint" />
            <mxPoint x="697" y="186" as="targetPoint" />
            <Array as="points">
              <mxPoint x="599" y="150" />
              <mxPoint x="640" y="150" />
              <mxPoint x="640" y="210" />
            </Array>
          </mxGeometry>
        </mxCell>
        <mxCell id="2VJSSDCcaUOSP8XT7AO9-103" value="Entrega&#xa;Semestral" style="text;spacingTop=-5;align=center" vertex="1" parent="1">
          <mxGeometry x="650" y="115" width="30" height="20" as="geometry" />
        </mxCell>
        <mxCell id="2VJSSDCcaUOSP8XT7AO9-104" value="" style="edgeStyle=elbowEdgeStyle;elbow=horizontal;strokeColor=#990000;strokeWidth=2;exitX=0.5;exitY=1;exitDx=0;exitDy=0;entryX=0.378;entryY=0.01;entryDx=0;entryDy=0;entryPerimeter=0;" edge="1" parent="1" source="7qlZIiX-SYgFlXNxfweP-97" target="5">
          <mxGeometry width="100" height="100" relative="1" as="geometry">
            <mxPoint x="423.5" y="243" as="sourcePoint" />
            <mxPoint x="370" y="391" as="targetPoint" />
            <Array as="points">
              <mxPoint x="352" y="360" />
            </Array>
          </mxGeometry>
        </mxCell>
        <mxCell id="2VJSSDCcaUOSP8XT7AO9-107" value="&lt;p style=&quot;margin: 0px; margin-top: 4px; text-align: center; text-decoration: underline;&quot;&gt;&lt;strong&gt;3 Tablas CSV&lt;/strong&gt;&lt;/p&gt;&lt;hr&gt;&lt;p style=&quot;text-align: left; margin: 0px 0px 0px 8px;&quot;&gt;&lt;span style=&quot;font-size: 11px; font-weight: 400;&quot;&gt;Sat.TabEntidad&lt;/span&gt;&lt;br&gt;&lt;/p&gt;&lt;p style=&quot;text-align: left; margin: 0px 0px 0px 8px;&quot;&gt;&lt;span style=&quot;font-size: 11px; font-weight: 400;&quot;&gt;Sat.TabHallazgo&lt;/span&gt;&lt;br&gt;&lt;/p&gt;&lt;p style=&quot;text-align: left; margin: 0px 0px 0px 8px;&quot;&gt;&lt;span style=&quot;font-size: 11px; font-weight: 400;&quot;&gt;Sat.TabSeccional&lt;/span&gt;&lt;br&gt;&lt;/p&gt;" style="verticalAlign=middle;align=center;overflow=fill;fontSize=12;fontFamily=Helvetica;html=1;rounded=1;fontStyle=1;strokeWidth=3;fillColor=#E6FFCC" vertex="1" parent="1">
          <mxGeometry x="665" y="186" width="100" height="84" as="geometry" />
        </mxCell>
        <mxCell id="2VJSSDCcaUOSP8XT7AO9-110" value="" style="endArrow=classic;html=1;rounded=1;entryX=1;entryY=0;entryDx=0;entryDy=0;exitX=0.5;exitY=1;exitDx=0;exitDy=0;strokeColor=#990000;strokeWidth=2;curved=0;" edge="1" parent="1" source="2VJSSDCcaUOSP8XT7AO9-100" target="5">
          <mxGeometry width="50" height="50" relative="1" as="geometry">
            <mxPoint x="370" y="250" as="sourcePoint" />
            <mxPoint x="420" y="200" as="targetPoint" />
            <Array as="points">
              <mxPoint x="640" y="391" />
            </Array>
          </mxGeometry>
        </mxCell>
        <mxCell id="2VJSSDCcaUOSP8XT7AO9-111" value="" style="endArrow=classic;html=1;rounded=1;entryX=0.5;entryY=0;entryDx=0;entryDy=0;exitX=1;exitY=0.5;exitDx=0;exitDy=0;curved=0;strokeColor=#990000;strokeWidth=2;" edge="1" parent="1" source="2VJSSDCcaUOSP8XT7AO9-97" target="2VJSSDCcaUOSP8XT7AO9-107">
          <mxGeometry width="50" height="50" relative="1" as="geometry">
            <mxPoint x="370" y="250" as="sourcePoint" />
            <mxPoint x="420" y="200" as="targetPoint" />
            <Array as="points">
              <mxPoint x="715" y="85" />
            </Array>
          </mxGeometry>
        </mxCell>
        <mxCell id="2VJSSDCcaUOSP8XT7AO9-114" value="Cuando hay&#xa;nueva alerta" style="text;spacingTop=-5;align=center" vertex="1" parent="1">
          <mxGeometry x="685" y="50" width="30" height="20" as="geometry" />
        </mxCell>
        <mxCell id="2VJSSDCcaUOSP8XT7AO9-115" value="" style="endArrow=classic;html=1;rounded=1;entryX=0.167;entryY=0;entryDx=0;entryDy=0;exitX=0;exitY=0.5;exitDx=0;exitDy=0;curved=0;strokeColor=#990000;strokeWidth=2;entryPerimeter=0;" edge="1" parent="1" source="2VJSSDCcaUOSP8XT7AO9-97" target="2VJSSDCcaUOSP8XT7AO9-96">
          <mxGeometry width="50" height="50" relative="1" as="geometry">
            <mxPoint x="370" y="250" as="sourcePoint" />
            <mxPoint x="420" y="200" as="targetPoint" />
            <Array as="points">
              <mxPoint x="520" y="85" />
            </Array>
          </mxGeometry>
        </mxCell>
        <mxCell id="2VJSSDCcaUOSP8XT7AO9-119" value="" style="endArrow=classic;html=1;rounded=1;entryX=1;entryY=0.5;entryDx=0;entryDy=0;exitX=0.5;exitY=1;exitDx=0;exitDy=0;curved=0;strokeColor=#990000;strokeWidth=2;" edge="1" parent="1" source="2VJSSDCcaUOSP8XT7AO9-107" target="5">
          <mxGeometry width="50" height="50" relative="1" as="geometry">
            <mxPoint x="310" y="350" as="sourcePoint" />
            <mxPoint x="360" y="300" as="targetPoint" />
            <Array as="points">
              <mxPoint x="715" y="416" />
            </Array>
          </mxGeometry>
        </mxCell>
        <mxCell id="2VJSSDCcaUOSP8XT7AO9-120" value="" style="endArrow=classic;html=1;rounded=0;exitX=0.5;exitY=1;exitDx=0;exitDy=0;strokeColor=#990000;strokeWidth=2;" edge="1" parent="1" source="2VJSSDCcaUOSP8XT7AO9-96">
          <mxGeometry width="50" height="50" relative="1" as="geometry">
            <mxPoint x="450" y="320" as="sourcePoint" />
            <mxPoint x="560" y="390" as="targetPoint" />
          </mxGeometry>
        </mxCell>
        <mxCell id="2VJSSDCcaUOSP8XT7AO9-126" value="" style="edgeStyle=orthogonalEdgeStyle;rounded=0;orthogonalLoop=1;jettySize=auto;html=1;strokeColor=#006666;strokeWidth=2;" edge="1" parent="1" source="2VJSSDCcaUOSP8XT7AO9-121" target="2VJSSDCcaUOSP8XT7AO9-123">
          <mxGeometry relative="1" as="geometry" />
        </mxCell>
        <mxCell id="2VJSSDCcaUOSP8XT7AO9-121" value="ETL" style="whiteSpace=wrap;align=center;verticalAlign=middle;fontStyle=1;strokeWidth=3;fillColor=#e1d5e7;strokeColor=#9673a6;" vertex="1" parent="1">
          <mxGeometry x="201" y="480" width="400" height="40" as="geometry" />
        </mxCell>
        <mxCell id="2VJSSDCcaUOSP8XT7AO9-122" value="" style="endArrow=classic;html=1;rounded=0;entryX=0.5;entryY=0;entryDx=0;entryDy=0;exitX=0.5;exitY=1;exitDx=0;exitDy=0;strokeColor=#006666;strokeWidth=2;" edge="1" parent="1" source="5" target="2VJSSDCcaUOSP8XT7AO9-121">
          <mxGeometry width="50" height="50" relative="1" as="geometry">
            <mxPoint x="360" y="560" as="sourcePoint" />
            <mxPoint x="410" y="510" as="targetPoint" />
          </mxGeometry>
        </mxCell>
        <mxCell id="2VJSSDCcaUOSP8XT7AO9-134" value="" style="group" vertex="1" connectable="0" parent="1">
          <mxGeometry x="171" y="549" width="460" height="126" as="geometry" />
        </mxCell>
        <mxCell id="2VJSSDCcaUOSP8XT7AO9-123" value="" style="shape=cube;whiteSpace=wrap;html=1;boundedLbl=1;backgroundOutline=1;darkOpacity=0.05;darkOpacity2=0.1;" vertex="1" parent="2VJSSDCcaUOSP8XT7AO9-134">
          <mxGeometry y="2" width="460" height="124" as="geometry" />
        </mxCell>
        <mxCell id="2VJSSDCcaUOSP8XT7AO9-127" value="&lt;b&gt;Data Mart&lt;/b&gt;&lt;div&gt;&lt;b&gt;FGN&lt;/b&gt;&lt;/div&gt;" style="shape=card;whiteSpace=wrap;html=1;" vertex="1" parent="2VJSSDCcaUOSP8XT7AO9-134">
          <mxGeometry x="41" y="31" width="60" height="80" as="geometry" />
        </mxCell>
        <mxCell id="2VJSSDCcaUOSP8XT7AO9-128" value="&lt;b&gt;Data Mart&lt;/b&gt;&lt;div&gt;&lt;b&gt;INPEC&lt;/b&gt;&lt;/div&gt;" style="shape=card;whiteSpace=wrap;html=1;" vertex="1" parent="2VJSSDCcaUOSP8XT7AO9-134">
          <mxGeometry x="108.5" y="31" width="60" height="80" as="geometry" />
        </mxCell>
        <mxCell id="2VJSSDCcaUOSP8XT7AO9-129" value="&lt;b&gt;Data Mart&lt;/b&gt;&lt;div&gt;&lt;b&gt;MDN&lt;/b&gt;&lt;/div&gt;" style="shape=card;whiteSpace=wrap;html=1;" vertex="1" parent="2VJSSDCcaUOSP8XT7AO9-134">
          <mxGeometry x="180" y="31" width="60" height="80" as="geometry" />
        </mxCell>
        <mxCell id="2VJSSDCcaUOSP8XT7AO9-130" value="&lt;b&gt;Data Mart&lt;/b&gt;&lt;div&gt;&lt;b&gt;MJD&lt;/b&gt;&lt;/div&gt;" style="shape=card;whiteSpace=wrap;html=1;" vertex="1" parent="2VJSSDCcaUOSP8XT7AO9-134">
          <mxGeometry x="247.5" y="31" width="60" height="80" as="geometry" />
        </mxCell>
        <mxCell id="2VJSSDCcaUOSP8XT7AO9-131" value="&lt;b&gt;Data Mart&lt;/b&gt;&lt;div&gt;&lt;b&gt;PNC&lt;/b&gt;&lt;/div&gt;" style="shape=card;whiteSpace=wrap;html=1;" vertex="1" parent="2VJSSDCcaUOSP8XT7AO9-134">
          <mxGeometry x="320" y="31" width="60" height="80" as="geometry" />
        </mxCell>
        <mxCell id="2VJSSDCcaUOSP8XT7AO9-132" value="&lt;b&gt;Data Mart&lt;/b&gt;&lt;div&gt;&lt;b&gt;SIMCI&lt;/b&gt;&lt;/div&gt;" style="shape=card;whiteSpace=wrap;html=1;" vertex="1" parent="2VJSSDCcaUOSP8XT7AO9-134">
          <mxGeometry x="387.5" y="31" width="60" height="80" as="geometry" />
        </mxCell>
        <mxCell id="2VJSSDCcaUOSP8XT7AO9-133" value="BODEGA DE DATOS" style="text;html=1;align=center;verticalAlign=middle;whiteSpace=wrap;rounded=0;fontStyle=1;fontSize=13;" vertex="1" parent="2VJSSDCcaUOSP8XT7AO9-134">
          <mxGeometry x="159" width="144" height="30" as="geometry" />
        </mxCell>
        <mxCell id="2VJSSDCcaUOSP8XT7AO9-143" value="" style="group;fontStyle=1" vertex="1" connectable="0" parent="1">
          <mxGeometry x="154" y="709" width="500" height="105" as="geometry" />
        </mxCell>
        <mxCell id="2VJSSDCcaUOSP8XT7AO9-137" value="" style="rounded=1;whiteSpace=wrap;html=1;absoluteArcSize=1;arcSize=14;strokeWidth=2;fillColor=#f9f7ed;strokeColor=#36393d;" vertex="1" parent="2VJSSDCcaUOSP8XT7AO9-143">
          <mxGeometry width="500" height="100" as="geometry" />
        </mxCell>
        <mxCell id="2VJSSDCcaUOSP8XT7AO9-138" value="SAT" style="strokeWidth=2;html=1;shape=mxgraph.flowchart.merge_or_storage;whiteSpace=wrap;fontStyle=1;verticalAlign=top;fillColor=#ffe6cc;strokeColor=#d79b00;" vertex="1" parent="2VJSSDCcaUOSP8XT7AO9-143">
          <mxGeometry x="8" y="20" width="95" height="60" as="geometry" />
        </mxCell>
        <mxCell id="2VJSSDCcaUOSP8XT7AO9-139" value="SUICAD" style="strokeWidth=2;html=1;shape=mxgraph.flowchart.merge_or_storage;whiteSpace=wrap;fontStyle=1;verticalAlign=top;fillColor=#ffe6cc;strokeColor=#d79b00;" vertex="1" parent="2VJSSDCcaUOSP8XT7AO9-143">
          <mxGeometry x="106" y="20" width="95" height="60" as="geometry" />
        </mxCell>
        <mxCell id="2VJSSDCcaUOSP8XT7AO9-140" value="SIDCO" style="strokeWidth=2;html=1;shape=mxgraph.flowchart.merge_or_storage;whiteSpace=wrap;fontStyle=1;verticalAlign=top;fillColor=#ffe6cc;strokeColor=#d79b00;" vertex="1" parent="2VJSSDCcaUOSP8XT7AO9-143">
          <mxGeometry x="207" y="20" width="95" height="60" as="geometry" />
        </mxCell>
        <mxCell id="2VJSSDCcaUOSP8XT7AO9-141" value="C. GEO" style="strokeWidth=2;html=1;shape=mxgraph.flowchart.merge_or_storage;whiteSpace=wrap;fontStyle=1;verticalAlign=top;fillColor=#ffe6cc;strokeColor=#d79b00;" vertex="1" parent="2VJSSDCcaUOSP8XT7AO9-143">
          <mxGeometry x="303" y="20" width="95" height="60" as="geometry" />
        </mxCell>
        <mxCell id="2VJSSDCcaUOSP8XT7AO9-142" value="P.DROGAS" style="strokeWidth=2;html=1;shape=mxgraph.flowchart.merge_or_storage;whiteSpace=wrap;fontStyle=1;verticalAlign=top;fillColor=#ffe6cc;strokeColor=#d79b00;" vertex="1" parent="2VJSSDCcaUOSP8XT7AO9-143">
          <mxGeometry x="400" y="20" width="95" height="60" as="geometry" />
        </mxCell>
        <mxCell id="2VJSSDCcaUOSP8XT7AO9-144" value="SUBSITIO WEB" style="text;html=1;align=center;verticalAlign=middle;whiteSpace=wrap;rounded=0;fontStyle=1" vertex="1" parent="2VJSSDCcaUOSP8XT7AO9-143">
          <mxGeometry x="197" y="80" width="109" height="25" as="geometry" />
        </mxCell>
        <mxCell id="2VJSSDCcaUOSP8XT7AO9-148" value="" style="endArrow=classic;html=1;rounded=0;exitX=0;exitY=0;exitDx=240;exitDy=124.00000000000001;exitPerimeter=0;fontSize=13;strokeWidth=2;strokeColor=#006666;entryX=0.515;entryY=0.009;entryDx=0;entryDy=0;entryPerimeter=0;" edge="1" parent="1" source="2VJSSDCcaUOSP8XT7AO9-123" target="2VJSSDCcaUOSP8XT7AO9-137">
          <mxGeometry width="50" height="50" relative="1" as="geometry">
            <mxPoint x="413" y="680" as="sourcePoint" />
            <mxPoint x="411.0000000000001" y="723" as="targetPoint" />
          </mxGeometry>
        </mxCell>
      </root>
    </mxGraphModel>
  </diagram>
</mxfile>
